<mxfile host="65bd71144e">
    <diagram id="qBH9-s3QlI0gwq-4O3Ie" name="Page-1">
        <mxGraphModel dx="708" dy="571" grid="0" gridSize="10" guides="1" tooltips="1" connect="1" arrows="1" fold="1" page="1" pageScale="1" pageWidth="827" pageHeight="1169" background="#ffffff" math="0" shadow="0">
            <root>
                <mxCell id="0"/>
                <mxCell id="1" parent="0"/>
                <mxCell id="2" value="hhhhh" style="rounded=0;whiteSpace=wrap;html=1;fillColor=none;fontColor=#ffffff;strokeColor=#006EAF;" parent="1" vertex="1">
                    <mxGeometry x="76" y="86" width="262" height="473" as="geometry"/>
                </mxCell>
                <mxCell id="ZYbnzRpqsAmZz9VrB556-3" style="edgeStyle=none;html=1;fontFamily=Helvetica;fontColor=#00FFFF;" parent="1" source="ZYbnzRpqsAmZz9VrB556-2" edge="1">
                    <mxGeometry relative="1" as="geometry">
                        <mxPoint x="130.80001831054688" y="18.199981689453125" as="targetPoint"/>
                    </mxGeometry>
                </mxCell>
                <mxCell id="ZYbnzRpqsAmZz9VrB556-2" value="&lt;h1&gt;&lt;font color=&quot;#00ffff&quot;&gt;Stack&lt;/font&gt;&lt;/h1&gt;" style="text;html=1;strokeColor=none;fillColor=none;spacing=5;spacingTop=-20;whiteSpace=wrap;overflow=hidden;rounded=0;" parent="1" vertex="1">
                    <mxGeometry x="162" y="31" width="74" height="38" as="geometry"/>
                </mxCell>
                <mxCell id="ZYbnzRpqsAmZz9VrB556-7" value="" style="line;strokeWidth=4;html=1;perimeter=backbonePerimeter;points=[];outlineConnect=0;fontFamily=Helvetica;fontColor=#006666;fillColor=none;strokeColor=#0066CC;" parent="1" vertex="1">
                    <mxGeometry x="76" y="503" width="262" height="10" as="geometry"/>
                </mxCell>
                <mxCell id="ZYbnzRpqsAmZz9VrB556-8" value="" style="line;strokeWidth=4;html=1;perimeter=backbonePerimeter;points=[];outlineConnect=0;fontFamily=Helvetica;fontColor=#006666;fillColor=none;strokeColor=#0066CC;" parent="1" vertex="1">
                    <mxGeometry x="76" y="443" width="262" height="10" as="geometry"/>
                </mxCell>
                <mxCell id="ZYbnzRpqsAmZz9VrB556-9" value="" style="line;strokeWidth=4;html=1;perimeter=backbonePerimeter;points=[];outlineConnect=0;fontFamily=Helvetica;fontColor=#006666;fillColor=none;strokeColor=#0066CC;" parent="1" vertex="1">
                    <mxGeometry x="76" y="385" width="262" height="10" as="geometry"/>
                </mxCell>
                <mxCell id="ZYbnzRpqsAmZz9VrB556-10" value="" style="line;strokeWidth=4;html=1;perimeter=backbonePerimeter;points=[];outlineConnect=0;fontFamily=Helvetica;fontColor=#006666;fillColor=none;strokeColor=#0066CC;" parent="1" vertex="1">
                    <mxGeometry x="76" y="317.5" width="262" height="10" as="geometry"/>
                </mxCell>
                <mxCell id="ZYbnzRpqsAmZz9VrB556-11" value="" style="line;strokeWidth=4;html=1;perimeter=backbonePerimeter;points=[];outlineConnect=0;fontFamily=Helvetica;fontColor=#006666;fillColor=none;strokeColor=#0066CC;" parent="1" vertex="1">
                    <mxGeometry x="76" y="260" width="262" height="10" as="geometry"/>
                </mxCell>
                <mxCell id="ZYbnzRpqsAmZz9VrB556-12" value="" style="line;strokeWidth=4;html=1;perimeter=backbonePerimeter;points=[];outlineConnect=0;fontFamily=Helvetica;fontColor=#006666;fillColor=none;strokeColor=#0066CC;" parent="1" vertex="1">
                    <mxGeometry x="76" y="202" width="262" height="10" as="geometry"/>
                </mxCell>
                <mxCell id="ZYbnzRpqsAmZz9VrB556-13" value="" style="line;strokeWidth=4;html=1;perimeter=backbonePerimeter;points=[];outlineConnect=0;fontFamily=Helvetica;fontColor=#006666;fillColor=none;strokeColor=#0066CC;" parent="1" vertex="1">
                    <mxGeometry x="76" y="138" width="262" height="10" as="geometry"/>
                </mxCell>
                <mxCell id="ZYbnzRpqsAmZz9VrB556-15" value="&lt;span style=&quot;font-size: 17px;&quot;&gt;&quot;&quot; 00&lt;/span&gt;" style="text;html=1;strokeColor=none;fillColor=none;align=center;verticalAlign=middle;whiteSpace=wrap;rounded=0;fontFamily=Helvetica;fontSize=13;fontColor=#006666;" parent="1" vertex="1">
                    <mxGeometry x="96" y="521" width="60" height="30" as="geometry"/>
                </mxCell>
                <mxCell id="ZYbnzRpqsAmZz9VrB556-16" value="&lt;span style=&quot;font-size: 17px;&quot;&gt;&quot;(&quot; 10&lt;/span&gt;" style="text;html=1;strokeColor=none;fillColor=none;align=center;verticalAlign=middle;whiteSpace=wrap;rounded=0;fontFamily=Helvetica;fontSize=13;fontColor=#006666;" parent="1" vertex="1">
                    <mxGeometry x="96" y="463" width="60" height="30" as="geometry"/>
                </mxCell>
                <mxCell id="ZYbnzRpqsAmZz9VrB556-17" value="&lt;span style=&quot;font-size: 17px;&quot;&gt;&quot;((&quot; 20&lt;/span&gt;" style="text;html=1;strokeColor=none;fillColor=none;align=center;verticalAlign=middle;whiteSpace=wrap;rounded=0;fontFamily=Helvetica;fontSize=13;fontColor=#006666;" parent="1" vertex="1">
                    <mxGeometry x="92" y="406" width="60" height="30" as="geometry"/>
                </mxCell>
                <mxCell id="ZYbnzRpqsAmZz9VrB556-18" value="&lt;span style=&quot;font-size: 17px;&quot;&gt;&quot;(((&quot; 30&lt;/span&gt;" style="text;html=1;strokeColor=none;fillColor=none;align=center;verticalAlign=middle;whiteSpace=wrap;rounded=0;fontFamily=Helvetica;fontSize=13;fontColor=#006666;" parent="1" vertex="1">
                    <mxGeometry x="92" y="344" width="60" height="30" as="geometry"/>
                </mxCell>
                <mxCell id="ZYbnzRpqsAmZz9VrB556-20" value="&lt;span style=&quot;font-size: 17px;&quot;&gt;&quot;((()&quot; 31&lt;/span&gt;" style="text;html=1;strokeColor=none;fillColor=none;align=center;verticalAlign=middle;whiteSpace=wrap;rounded=0;fontFamily=Helvetica;fontSize=13;fontColor=#006666;" parent="1" vertex="1">
                    <mxGeometry x="83" y="276" width="69" height="30" as="geometry"/>
                </mxCell>
                <mxCell id="ZYbnzRpqsAmZz9VrB556-21" value="&lt;span style=&quot;font-size: 17px;&quot;&gt;&quot;((())&quot; 32&lt;/span&gt;" style="text;html=1;strokeColor=none;fillColor=none;align=center;verticalAlign=middle;whiteSpace=wrap;rounded=0;fontFamily=Helvetica;fontSize=13;fontColor=#006666;" parent="1" vertex="1">
                    <mxGeometry x="83" y="221" width="69" height="30" as="geometry"/>
                </mxCell>
                <mxCell id="ZYbnzRpqsAmZz9VrB556-22" value="&lt;span style=&quot;font-size: 17px;&quot;&gt;&quot;((()))&quot; 33&lt;/span&gt;" style="text;html=1;strokeColor=none;fillColor=none;align=center;verticalAlign=middle;whiteSpace=wrap;rounded=0;fontFamily=Helvetica;fontSize=13;fontColor=#006666;" parent="1" vertex="1">
                    <mxGeometry x="83" y="160" width="79" height="30" as="geometry"/>
                </mxCell>
                <mxCell id="ZYbnzRpqsAmZz9VrB556-24" value="" style="edgeStyle=none;html=1;fontFamily=Helvetica;fontSize=17;fontColor=#006666;" parent="1" source="ZYbnzRpqsAmZz9VrB556-23" target="ZYbnzRpqsAmZz9VrB556-13" edge="1">
                    <mxGeometry relative="1" as="geometry"/>
                </mxCell>
                <mxCell id="ZYbnzRpqsAmZz9VrB556-23" value="&lt;span style=&quot;font-size: 17px;&quot;&gt;return&lt;/span&gt;" style="text;html=1;strokeColor=none;fillColor=none;align=center;verticalAlign=middle;whiteSpace=wrap;rounded=0;fontFamily=Helvetica;fontSize=13;fontColor=#006666;" parent="1" vertex="1">
                    <mxGeometry x="180" y="160" width="117" height="30" as="geometry"/>
                </mxCell>
                <mxCell id="ZYbnzRpqsAmZz9VrB556-25" value="&lt;span style=&quot;font-size: 17px;&quot;&gt;return&lt;/span&gt;" style="text;html=1;strokeColor=none;fillColor=none;align=center;verticalAlign=middle;whiteSpace=wrap;rounded=0;fontFamily=Helvetica;fontSize=13;fontColor=#006666;" parent="1" vertex="1">
                    <mxGeometry x="180" y="221" width="117" height="30" as="geometry"/>
                </mxCell>
                <mxCell id="ZYbnzRpqsAmZz9VrB556-26" value="&lt;span style=&quot;font-size: 17px;&quot;&gt;return&lt;/span&gt;" style="text;html=1;strokeColor=none;fillColor=none;align=center;verticalAlign=middle;whiteSpace=wrap;rounded=0;fontFamily=Helvetica;fontSize=13;fontColor=#006666;" parent="1" vertex="1">
                    <mxGeometry x="180" y="279" width="117" height="30" as="geometry"/>
                </mxCell>
                <mxCell id="ZYbnzRpqsAmZz9VrB556-27" value="&lt;span style=&quot;font-size: 17px;&quot;&gt;return&lt;/span&gt;" style="text;html=1;strokeColor=none;fillColor=none;align=center;verticalAlign=middle;whiteSpace=wrap;rounded=0;fontFamily=Helvetica;fontSize=13;fontColor=#006666;" parent="1" vertex="1">
                    <mxGeometry x="180" y="341" width="117" height="30" as="geometry"/>
                </mxCell>
            </root>
        </mxGraphModel>
    </diagram>
    <diagram id="xRXtSmtEbuFx8RchdLw4" name="Page-2">
        <mxGraphModel dx="708" dy="571" grid="0" gridSize="10" guides="1" tooltips="1" connect="1" arrows="1" fold="1" page="1" pageScale="1" pageWidth="827" pageHeight="1169" background="#ffffff" math="0" shadow="0">
            <root>
                <mxCell id="0"/>
                <mxCell id="1" parent="0"/>
                <mxCell id="L4zsJS1Vy8WPlAMr8rK0-1" value="hhhhh" style="rounded=0;whiteSpace=wrap;html=1;fillColor=none;fontColor=#ffffff;strokeColor=#006EAF;" parent="1" vertex="1">
                    <mxGeometry x="76" y="86" width="262" height="473" as="geometry"/>
                </mxCell>
                <mxCell id="L4zsJS1Vy8WPlAMr8rK0-2" style="edgeStyle=none;html=1;fontFamily=Helvetica;fontColor=#00FFFF;" parent="1" source="L4zsJS1Vy8WPlAMr8rK0-3" edge="1">
                    <mxGeometry relative="1" as="geometry">
                        <mxPoint x="130.80001831054688" y="18.199981689453125" as="targetPoint"/>
                    </mxGeometry>
                </mxCell>
                <mxCell id="L4zsJS1Vy8WPlAMr8rK0-3" value="&lt;h1&gt;&lt;font color=&quot;#00ffff&quot;&gt;Stack&lt;/font&gt;&lt;/h1&gt;" style="text;html=1;strokeColor=none;fillColor=none;spacing=5;spacingTop=-20;whiteSpace=wrap;overflow=hidden;rounded=0;" parent="1" vertex="1">
                    <mxGeometry x="162" y="31" width="74" height="38" as="geometry"/>
                </mxCell>
                <mxCell id="L4zsJS1Vy8WPlAMr8rK0-4" value="" style="line;strokeWidth=4;html=1;perimeter=backbonePerimeter;points=[];outlineConnect=0;fontFamily=Helvetica;fontColor=#006666;fillColor=none;strokeColor=#0066CC;" parent="1" vertex="1">
                    <mxGeometry x="76" y="503" width="262" height="10" as="geometry"/>
                </mxCell>
                <mxCell id="L4zsJS1Vy8WPlAMr8rK0-5" value="" style="line;strokeWidth=4;html=1;perimeter=backbonePerimeter;points=[];outlineConnect=0;fontFamily=Helvetica;fontColor=#006666;fillColor=none;strokeColor=#0066CC;" parent="1" vertex="1">
                    <mxGeometry x="76" y="443" width="262" height="10" as="geometry"/>
                </mxCell>
                <mxCell id="L4zsJS1Vy8WPlAMr8rK0-6" value="" style="line;strokeWidth=4;html=1;perimeter=backbonePerimeter;points=[];outlineConnect=0;fontFamily=Helvetica;fontColor=#006666;fillColor=none;strokeColor=#0066CC;" parent="1" vertex="1">
                    <mxGeometry x="76" y="385" width="262" height="10" as="geometry"/>
                </mxCell>
                <mxCell id="L4zsJS1Vy8WPlAMr8rK0-7" value="" style="line;strokeWidth=4;html=1;perimeter=backbonePerimeter;points=[];outlineConnect=0;fontFamily=Helvetica;fontColor=#006666;fillColor=none;strokeColor=#0066CC;" parent="1" vertex="1">
                    <mxGeometry x="76" y="317.5" width="262" height="10" as="geometry"/>
                </mxCell>
                <mxCell id="L4zsJS1Vy8WPlAMr8rK0-8" value="" style="line;strokeWidth=4;html=1;perimeter=backbonePerimeter;points=[];outlineConnect=0;fontFamily=Helvetica;fontColor=#006666;fillColor=none;strokeColor=#0066CC;" parent="1" vertex="1">
                    <mxGeometry x="76" y="260" width="262" height="10" as="geometry"/>
                </mxCell>
                <mxCell id="L4zsJS1Vy8WPlAMr8rK0-9" value="" style="line;strokeWidth=4;html=1;perimeter=backbonePerimeter;points=[];outlineConnect=0;fontFamily=Helvetica;fontColor=#006666;fillColor=none;strokeColor=#0066CC;" parent="1" vertex="1">
                    <mxGeometry x="76" y="202" width="262" height="10" as="geometry"/>
                </mxCell>
                <mxCell id="L4zsJS1Vy8WPlAMr8rK0-10" value="" style="line;strokeWidth=4;html=1;perimeter=backbonePerimeter;points=[];outlineConnect=0;fontFamily=Helvetica;fontColor=#006666;fillColor=none;strokeColor=#0066CC;" parent="1" vertex="1">
                    <mxGeometry x="76" y="138" width="262" height="10" as="geometry"/>
                </mxCell>
                <mxCell id="L4zsJS1Vy8WPlAMr8rK0-11" value="&lt;span style=&quot;font-size: 17px;&quot;&gt;&quot;&quot; 00&lt;/span&gt;" style="text;html=1;strokeColor=none;fillColor=none;align=center;verticalAlign=middle;whiteSpace=wrap;rounded=0;fontFamily=Helvetica;fontSize=13;fontColor=#006666;" parent="1" vertex="1">
                    <mxGeometry x="96" y="521" width="60" height="30" as="geometry"/>
                </mxCell>
                <mxCell id="L4zsJS1Vy8WPlAMr8rK0-12" value="&lt;span style=&quot;font-size: 17px;&quot;&gt;&quot;(&quot; 10&lt;/span&gt;" style="text;html=1;strokeColor=none;fillColor=none;align=center;verticalAlign=middle;whiteSpace=wrap;rounded=0;fontFamily=Helvetica;fontSize=13;fontColor=#006666;" parent="1" vertex="1">
                    <mxGeometry x="96" y="463" width="60" height="30" as="geometry"/>
                </mxCell>
                <mxCell id="L4zsJS1Vy8WPlAMr8rK0-24" value="" style="edgeStyle=none;html=1;fontFamily=Helvetica;fontSize=17;fontColor=#006666;" parent="1" source="L4zsJS1Vy8WPlAMr8rK0-13" target="L4zsJS1Vy8WPlAMr8rK0-15" edge="1">
                    <mxGeometry relative="1" as="geometry"/>
                </mxCell>
                <mxCell id="L4zsJS1Vy8WPlAMr8rK0-13" value="&lt;span style=&quot;font-size: 17px;&quot;&gt;&quot;((&quot; 20&lt;/span&gt;" style="text;html=1;strokeColor=none;fillColor=none;align=center;verticalAlign=middle;whiteSpace=wrap;rounded=0;fontFamily=Helvetica;fontSize=13;fontColor=#006666;" parent="1" vertex="1">
                    <mxGeometry x="92" y="406" width="60" height="30" as="geometry"/>
                </mxCell>
                <mxCell id="L4zsJS1Vy8WPlAMr8rK0-14" value="&lt;span style=&quot;font-size: 17px;&quot;&gt;&quot;(()&quot; 21&lt;/span&gt;" style="text;html=1;strokeColor=none;fillColor=none;align=center;verticalAlign=middle;whiteSpace=wrap;rounded=0;fontFamily=Helvetica;fontSize=13;fontColor=#006666;" parent="1" vertex="1">
                    <mxGeometry x="92" y="344" width="60" height="30" as="geometry"/>
                </mxCell>
                <mxCell id="L4zsJS1Vy8WPlAMr8rK0-15" value="&lt;span style=&quot;font-size: 17px;&quot;&gt;&quot;(()(&quot; 31&lt;/span&gt;" style="text;html=1;strokeColor=none;fillColor=none;align=center;verticalAlign=middle;whiteSpace=wrap;rounded=0;fontFamily=Helvetica;fontSize=13;fontColor=#006666;" parent="1" vertex="1">
                    <mxGeometry x="83" y="276" width="69" height="30" as="geometry"/>
                </mxCell>
                <mxCell id="L4zsJS1Vy8WPlAMr8rK0-16" value="&lt;span style=&quot;font-size: 17px;&quot;&gt;&quot;(()()&quot; 32&lt;/span&gt;" style="text;html=1;strokeColor=none;fillColor=none;align=center;verticalAlign=middle;whiteSpace=wrap;rounded=0;fontFamily=Helvetica;fontSize=13;fontColor=#006666;" parent="1" vertex="1">
                    <mxGeometry x="83" y="221" width="69" height="30" as="geometry"/>
                </mxCell>
                <mxCell id="L4zsJS1Vy8WPlAMr8rK0-17" value="&lt;span style=&quot;font-size: 17px;&quot;&gt;&quot;(()())&quot; 33&lt;/span&gt;" style="text;html=1;strokeColor=none;fillColor=none;align=center;verticalAlign=middle;whiteSpace=wrap;rounded=0;fontFamily=Helvetica;fontSize=13;fontColor=#006666;" parent="1" vertex="1">
                    <mxGeometry x="83" y="160" width="79" height="30" as="geometry"/>
                </mxCell>
                <mxCell id="L4zsJS1Vy8WPlAMr8rK0-18" value="" style="edgeStyle=none;html=1;fontFamily=Helvetica;fontSize=17;fontColor=#006666;" parent="1" source="L4zsJS1Vy8WPlAMr8rK0-19" target="L4zsJS1Vy8WPlAMr8rK0-10" edge="1">
                    <mxGeometry relative="1" as="geometry"/>
                </mxCell>
                <mxCell id="L4zsJS1Vy8WPlAMr8rK0-19" value="&lt;span style=&quot;font-size: 17px;&quot;&gt;return&lt;/span&gt;" style="text;html=1;strokeColor=none;fillColor=none;align=center;verticalAlign=middle;whiteSpace=wrap;rounded=0;fontFamily=Helvetica;fontSize=13;fontColor=#006666;" parent="1" vertex="1">
                    <mxGeometry x="180" y="160" width="117" height="30" as="geometry"/>
                </mxCell>
                <mxCell id="L4zsJS1Vy8WPlAMr8rK0-25" value="" style="edgeStyle=none;html=1;fontFamily=Helvetica;fontSize=17;fontColor=#006666;" parent="1" source="L4zsJS1Vy8WPlAMr8rK0-23" edge="1">
                    <mxGeometry relative="1" as="geometry">
                        <mxPoint x="238.5" y="371" as="targetPoint"/>
                    </mxGeometry>
                </mxCell>
                <mxCell id="L4zsJS1Vy8WPlAMr8rK0-23" value="&lt;span style=&quot;font-size: 17px;&quot;&gt;dfs(&quot;(()&quot;, 2, 1)&lt;/span&gt;" style="text;html=1;strokeColor=none;fillColor=none;align=center;verticalAlign=middle;whiteSpace=wrap;rounded=0;fontFamily=Helvetica;fontSize=13;fontColor=#006666;" parent="1" vertex="1">
                    <mxGeometry x="180" y="406" width="117" height="30" as="geometry"/>
                </mxCell>
                <mxCell id="L4zsJS1Vy8WPlAMr8rK0-26" value="&lt;span style=&quot;font-size: 17px;&quot;&gt;dfs(&quot;(()(&quot;, 3, 1)&lt;/span&gt;" style="text;html=1;strokeColor=none;fillColor=none;align=center;verticalAlign=middle;whiteSpace=wrap;rounded=0;fontFamily=Helvetica;fontSize=13;fontColor=#006666;" parent="1" vertex="1">
                    <mxGeometry x="180" y="341" width="117" height="30" as="geometry"/>
                </mxCell>
                <mxCell id="L4zsJS1Vy8WPlAMr8rK0-27" value="&lt;span style=&quot;font-size: 17px;&quot;&gt;dfs(&quot;(()(&quot;, 3, 2)&lt;/span&gt;" style="text;html=1;strokeColor=none;fillColor=none;align=center;verticalAlign=middle;whiteSpace=wrap;rounded=0;fontFamily=Helvetica;fontSize=13;fontColor=#006666;" parent="1" vertex="1">
                    <mxGeometry x="180" y="276" width="117" height="30" as="geometry"/>
                </mxCell>
                <mxCell id="L4zsJS1Vy8WPlAMr8rK0-28" value="&lt;span style=&quot;font-size: 17px;&quot;&gt;dfs(&quot;(()())&quot;, 3, 3)&lt;/span&gt;" style="text;html=1;strokeColor=none;fillColor=none;align=center;verticalAlign=middle;whiteSpace=wrap;rounded=0;fontFamily=Helvetica;fontSize=13;fontColor=#006666;" parent="1" vertex="1">
                    <mxGeometry x="170" y="221" width="145" height="30" as="geometry"/>
                </mxCell>
            </root>
        </mxGraphModel>
    </diagram>
    <diagram id="gwDdMJZjIaISqUSfu7XH" name="Page-3">
        <mxGraphModel dx="1535" dy="1740" grid="1" gridSize="10" guides="1" tooltips="1" connect="1" arrows="1" fold="1" page="1" pageScale="1" pageWidth="827" pageHeight="1169" background="#ffffff" math="0" shadow="0">
            <root>
                <mxCell id="0"/>
                <mxCell id="1" parent="0"/>
                <mxCell id="VFTJdjdQ5J9usoPkyaWU-1" value="" style="ellipse;whiteSpace=wrap;html=1;aspect=fixed;" parent="1" vertex="1">
                    <mxGeometry x="340" y="80" width="40" height="40" as="geometry"/>
                </mxCell>
                <mxCell id="VFTJdjdQ5J9usoPkyaWU-2" value="" style="endArrow=none;html=1;strokeColor=#131111;" parent="1" edge="1">
                    <mxGeometry width="50" height="50" relative="1" as="geometry">
                        <mxPoint x="250" y="160" as="sourcePoint"/>
                        <mxPoint x="350" y="110" as="targetPoint"/>
                    </mxGeometry>
                </mxCell>
                <mxCell id="VFTJdjdQ5J9usoPkyaWU-3" value="" style="endArrow=none;html=1;strokeColor=#131111;" parent="1" edge="1">
                    <mxGeometry width="50" height="50" relative="1" as="geometry">
                        <mxPoint x="490" y="160" as="sourcePoint"/>
                        <mxPoint x="370" y="110" as="targetPoint"/>
                    </mxGeometry>
                </mxCell>
                <mxCell id="VFTJdjdQ5J9usoPkyaWU-4" value="" style="ellipse;whiteSpace=wrap;html=1;aspect=fixed;" parent="1" vertex="1">
                    <mxGeometry x="230" y="160" width="40" height="40" as="geometry"/>
                </mxCell>
                <mxCell id="VFTJdjdQ5J9usoPkyaWU-5" value="" style="endArrow=none;html=1;strokeColor=#131111;" parent="1" edge="1">
                    <mxGeometry width="50" height="50" relative="1" as="geometry">
                        <mxPoint x="190" y="240" as="sourcePoint"/>
                        <mxPoint x="240" y="190" as="targetPoint"/>
                    </mxGeometry>
                </mxCell>
                <mxCell id="VFTJdjdQ5J9usoPkyaWU-6" value="" style="endArrow=none;html=1;strokeColor=#131111;" parent="1" edge="1">
                    <mxGeometry width="50" height="50" relative="1" as="geometry">
                        <mxPoint x="420" y="250" as="sourcePoint"/>
                        <mxPoint x="260" y="190" as="targetPoint"/>
                    </mxGeometry>
                </mxCell>
                <mxCell id="VFTJdjdQ5J9usoPkyaWU-8" value="" style="ellipse;whiteSpace=wrap;html=1;aspect=fixed;" parent="1" vertex="1">
                    <mxGeometry x="480" y="160" width="40" height="40" as="geometry"/>
                </mxCell>
                <mxCell id="VFTJdjdQ5J9usoPkyaWU-11" value="" style="ellipse;whiteSpace=wrap;html=1;aspect=fixed;" parent="1" vertex="1">
                    <mxGeometry x="170" y="240" width="40" height="40" as="geometry"/>
                </mxCell>
                <mxCell id="VFTJdjdQ5J9usoPkyaWU-12" value="" style="endArrow=none;html=1;strokeColor=#131111;" parent="1" edge="1">
                    <mxGeometry width="50" height="50" relative="1" as="geometry">
                        <mxPoint x="130" y="320" as="sourcePoint"/>
                        <mxPoint x="180" y="270" as="targetPoint"/>
                    </mxGeometry>
                </mxCell>
                <mxCell id="VFTJdjdQ5J9usoPkyaWU-13" value="" style="endArrow=none;html=1;strokeColor=#131111;exitX=0.5;exitY=0;exitDx=0;exitDy=0;" parent="1" source="VFTJdjdQ5J9usoPkyaWU-58" edge="1">
                    <mxGeometry width="50" height="50" relative="1" as="geometry">
                        <mxPoint x="220" y="310" as="sourcePoint"/>
                        <mxPoint x="200" y="270" as="targetPoint"/>
                    </mxGeometry>
                </mxCell>
                <mxCell id="VFTJdjdQ5J9usoPkyaWU-14" value="" style="ellipse;whiteSpace=wrap;html=1;aspect=fixed;" parent="1" vertex="1">
                    <mxGeometry x="400" y="250" width="40" height="40" as="geometry"/>
                </mxCell>
                <mxCell id="VFTJdjdQ5J9usoPkyaWU-15" value="" style="endArrow=none;html=1;strokeColor=#131111;" parent="1" edge="1">
                    <mxGeometry width="50" height="50" relative="1" as="geometry">
                        <mxPoint x="365" y="330" as="sourcePoint"/>
                        <mxPoint x="415" y="280" as="targetPoint"/>
                    </mxGeometry>
                </mxCell>
                <mxCell id="VFTJdjdQ5J9usoPkyaWU-16" value="" style="endArrow=none;html=1;strokeColor=#131111;" parent="1" edge="1">
                    <mxGeometry width="50" height="50" relative="1" as="geometry">
                        <mxPoint x="490" y="330" as="sourcePoint"/>
                        <mxPoint x="430" y="280" as="targetPoint"/>
                    </mxGeometry>
                </mxCell>
                <mxCell id="VFTJdjdQ5J9usoPkyaWU-17" value="" style="ellipse;whiteSpace=wrap;html=1;aspect=fixed;" parent="1" vertex="1">
                    <mxGeometry x="350" y="330" width="40" height="40" as="geometry"/>
                </mxCell>
                <mxCell id="VFTJdjdQ5J9usoPkyaWU-18" value="" style="endArrow=none;html=1;strokeColor=#131111;" parent="1" edge="1">
                    <mxGeometry width="50" height="50" relative="1" as="geometry">
                        <mxPoint x="315" y="410" as="sourcePoint"/>
                        <mxPoint x="365" y="360" as="targetPoint"/>
                    </mxGeometry>
                </mxCell>
                <mxCell id="VFTJdjdQ5J9usoPkyaWU-19" value="" style="endArrow=none;html=1;strokeColor=#131111;" parent="1" edge="1">
                    <mxGeometry width="50" height="50" relative="1" as="geometry">
                        <mxPoint x="420" y="410" as="sourcePoint"/>
                        <mxPoint x="380" y="360" as="targetPoint"/>
                    </mxGeometry>
                </mxCell>
                <mxCell id="VFTJdjdQ5J9usoPkyaWU-24" value="&lt;font size=&quot;1&quot; color=&quot;#ff0000&quot;&gt;&lt;b style=&quot;font-size: 17px;&quot;&gt;（&lt;/b&gt;&lt;/font&gt;" style="text;html=1;align=center;verticalAlign=middle;resizable=0;points=[];autosize=1;strokeColor=none;fillColor=none;" parent="1" vertex="1">
                    <mxGeometry x="270" y="105" width="40" height="30" as="geometry"/>
                </mxCell>
                <mxCell id="VFTJdjdQ5J9usoPkyaWU-25" value="&lt;font size=&quot;1&quot; color=&quot;#ff0000&quot;&gt;&lt;b style=&quot;font-size: 17px;&quot;&gt;（&lt;/b&gt;&lt;/font&gt;" style="text;html=1;align=center;verticalAlign=middle;resizable=0;points=[];autosize=1;strokeColor=none;fillColor=none;" parent="1" vertex="1">
                    <mxGeometry x="180" y="190" width="40" height="30" as="geometry"/>
                </mxCell>
                <mxCell id="VFTJdjdQ5J9usoPkyaWU-26" value="&lt;font size=&quot;1&quot; color=&quot;#ff0000&quot;&gt;&lt;b style=&quot;font-size: 17px;&quot;&gt;（&lt;/b&gt;&lt;/font&gt;" style="text;html=1;align=center;verticalAlign=middle;resizable=0;points=[];autosize=1;strokeColor=none;fillColor=none;" parent="1" vertex="1">
                    <mxGeometry x="100" y="270" width="40" height="30" as="geometry"/>
                </mxCell>
                <mxCell id="VFTJdjdQ5J9usoPkyaWU-27" value="&lt;font size=&quot;1&quot; color=&quot;#ff0000&quot;&gt;&lt;b style=&quot;font-size: 17px;&quot;&gt;（&lt;/b&gt;&lt;/font&gt;" style="text;html=1;align=center;verticalAlign=middle;resizable=0;points=[];autosize=1;strokeColor=none;fillColor=none;" parent="1" vertex="1">
                    <mxGeometry x="290" y="360" width="40" height="30" as="geometry"/>
                </mxCell>
                <mxCell id="VFTJdjdQ5J9usoPkyaWU-28" value="&lt;font size=&quot;1&quot; color=&quot;#ff0000&quot;&gt;&lt;b style=&quot;font-size: 17px;&quot;&gt;（&lt;/b&gt;&lt;/font&gt;" style="text;html=1;align=center;verticalAlign=middle;resizable=0;points=[];autosize=1;strokeColor=none;fillColor=none;" parent="1" vertex="1">
                    <mxGeometry x="350" y="280" width="40" height="30" as="geometry"/>
                </mxCell>
                <mxCell id="VFTJdjdQ5J9usoPkyaWU-30" value="&lt;font color=&quot;#ff0000&quot;&gt;&lt;span style=&quot;font-size: 17px;&quot;&gt;&lt;b&gt;）&lt;/b&gt;&lt;/span&gt;&lt;/font&gt;" style="text;html=1;align=center;verticalAlign=middle;resizable=0;points=[];autosize=1;strokeColor=none;fillColor=none;" parent="1" vertex="1">
                    <mxGeometry x="420" y="105" width="40" height="30" as="geometry"/>
                </mxCell>
                <mxCell id="VFTJdjdQ5J9usoPkyaWU-32" value="&lt;font color=&quot;#ff0000&quot;&gt;&lt;span style=&quot;font-size: 17px;&quot;&gt;&lt;b&gt;）&lt;/b&gt;&lt;/span&gt;&lt;/font&gt;" style="text;html=1;align=center;verticalAlign=middle;resizable=0;points=[];autosize=1;strokeColor=none;fillColor=none;" parent="1" vertex="1">
                    <mxGeometry x="370" y="190" width="40" height="30" as="geometry"/>
                </mxCell>
                <mxCell id="VFTJdjdQ5J9usoPkyaWU-33" value="&lt;font color=&quot;#ff0000&quot;&gt;&lt;span style=&quot;font-size: 17px;&quot;&gt;&lt;b&gt;）&lt;/b&gt;&lt;/span&gt;&lt;/font&gt;" style="text;html=1;align=center;verticalAlign=middle;resizable=0;points=[];autosize=1;strokeColor=none;fillColor=none;" parent="1" vertex="1">
                    <mxGeometry x="220" y="270" width="40" height="30" as="geometry"/>
                </mxCell>
                <mxCell id="VFTJdjdQ5J9usoPkyaWU-34" value="&lt;font color=&quot;#ff0000&quot;&gt;&lt;span style=&quot;font-size: 17px;&quot;&gt;&lt;b&gt;）&lt;/b&gt;&lt;/span&gt;&lt;/font&gt;" style="text;html=1;align=center;verticalAlign=middle;resizable=0;points=[];autosize=1;strokeColor=none;fillColor=none;" parent="1" vertex="1">
                    <mxGeometry x="470" y="280" width="40" height="30" as="geometry"/>
                </mxCell>
                <mxCell id="VFTJdjdQ5J9usoPkyaWU-35" value="&lt;font color=&quot;#ff0000&quot;&gt;&lt;span style=&quot;font-size: 17px;&quot;&gt;&lt;b&gt;）&lt;/b&gt;&lt;/span&gt;&lt;/font&gt;" style="text;html=1;align=center;verticalAlign=middle;resizable=0;points=[];autosize=1;strokeColor=none;fillColor=none;" parent="1" vertex="1">
                    <mxGeometry x="400" y="360" width="40" height="30" as="geometry"/>
                </mxCell>
                <mxCell id="VFTJdjdQ5J9usoPkyaWU-38" value="&lt;font color=&quot;#0066cc&quot; size=&quot;1&quot;&gt;&lt;b style=&quot;font-size: 45px;&quot;&gt;X&lt;/b&gt;&lt;/font&gt;" style="text;html=1;align=center;verticalAlign=middle;resizable=0;points=[];autosize=1;strokeColor=none;fillColor=none;" parent="1" vertex="1">
                    <mxGeometry x="385" y="90" width="50" height="70" as="geometry"/>
                </mxCell>
                <mxCell id="VFTJdjdQ5J9usoPkyaWU-41" value="&lt;font color=&quot;#ff0000&quot;&gt;&lt;span style=&quot;font-size: 17px;&quot;&gt;&lt;b&gt;n：生成n对括号&lt;br&gt;l：左括号的数量&lt;br&gt;r：右括号的数量&lt;br&gt;回溯的条件：左括号的数量要严格大于右括号的数量且均小于n，否则序列不匹配&lt;br&gt;优先深度遍历左子树，搜索失败回溯到父节点继续搜索右子树，左右子树均搜索完毕继续回溯&lt;br&gt;左右括号相等且等于n时搜索到一个结果&lt;br&gt;&lt;/b&gt;&lt;/span&gt;&lt;/font&gt;" style="text;html=1;align=center;verticalAlign=middle;resizable=0;points=[];autosize=1;strokeColor=none;fillColor=none;" parent="1" vertex="1">
                    <mxGeometry x="-30" y="-50" width="720" height="140" as="geometry"/>
                </mxCell>
                <mxCell id="VFTJdjdQ5J9usoPkyaWU-42" value="&lt;font color=&quot;#0066cc&quot; size=&quot;1&quot;&gt;&lt;b style=&quot;font-size: 45px;&quot;&gt;X&lt;/b&gt;&lt;/font&gt;" style="text;html=1;align=center;verticalAlign=middle;resizable=0;points=[];autosize=1;strokeColor=none;fillColor=none;" parent="1" vertex="1">
                    <mxGeometry x="130" y="260" width="50" height="70" as="geometry"/>
                </mxCell>
                <mxCell id="VFTJdjdQ5J9usoPkyaWU-58" value="" style="ellipse;whiteSpace=wrap;html=1;aspect=fixed;" parent="1" vertex="1">
                    <mxGeometry x="210" y="320" width="40" height="40" as="geometry"/>
                </mxCell>
                <mxCell id="VFTJdjdQ5J9usoPkyaWU-59" value="" style="endArrow=none;html=1;strokeColor=#131111;" parent="1" edge="1">
                    <mxGeometry width="50" height="50" relative="1" as="geometry">
                        <mxPoint x="170" y="410" as="sourcePoint"/>
                        <mxPoint x="220" y="360" as="targetPoint"/>
                    </mxGeometry>
                </mxCell>
                <mxCell id="VFTJdjdQ5J9usoPkyaWU-60" value="" style="endArrow=none;html=1;strokeColor=#131111;" parent="1" edge="1">
                    <mxGeometry width="50" height="50" relative="1" as="geometry">
                        <mxPoint x="270" y="410" as="sourcePoint"/>
                        <mxPoint x="240" y="360" as="targetPoint"/>
                    </mxGeometry>
                </mxCell>
                <mxCell id="VFTJdjdQ5J9usoPkyaWU-61" value="&lt;font size=&quot;1&quot; color=&quot;#ff0000&quot;&gt;&lt;b style=&quot;font-size: 17px;&quot;&gt;（&lt;/b&gt;&lt;/font&gt;" style="text;html=1;align=center;verticalAlign=middle;resizable=0;points=[];autosize=1;strokeColor=none;fillColor=none;" parent="1" vertex="1">
                    <mxGeometry x="160" y="360" width="40" height="30" as="geometry"/>
                </mxCell>
                <mxCell id="VFTJdjdQ5J9usoPkyaWU-65" value="&lt;font color=&quot;#ff0000&quot;&gt;&lt;span style=&quot;font-size: 17px;&quot;&gt;&lt;b&gt;）&lt;/b&gt;&lt;/span&gt;&lt;/font&gt;" style="text;html=1;align=center;verticalAlign=middle;resizable=0;points=[];autosize=1;strokeColor=none;fillColor=none;" parent="1" vertex="1">
                    <mxGeometry x="260" y="360" width="40" height="30" as="geometry"/>
                </mxCell>
                <mxCell id="VFTJdjdQ5J9usoPkyaWU-66" value="&lt;font color=&quot;#0066cc&quot; size=&quot;1&quot;&gt;&lt;b style=&quot;font-size: 45px;&quot;&gt;X&lt;/b&gt;&lt;/font&gt;" style="text;html=1;align=center;verticalAlign=middle;resizable=0;points=[];autosize=1;strokeColor=none;fillColor=none;" parent="1" vertex="1">
                    <mxGeometry x="180" y="340" width="50" height="70" as="geometry"/>
                </mxCell>
                <mxCell id="VFTJdjdQ5J9usoPkyaWU-69" value="" style="ellipse;whiteSpace=wrap;html=1;aspect=fixed;" parent="1" vertex="1">
                    <mxGeometry x="260" y="410" width="40" height="40" as="geometry"/>
                </mxCell>
                <mxCell id="VFTJdjdQ5J9usoPkyaWU-70" value="" style="endArrow=none;html=1;strokeColor=#131111;" parent="1" edge="1">
                    <mxGeometry width="50" height="50" relative="1" as="geometry">
                        <mxPoint x="225" y="490" as="sourcePoint"/>
                        <mxPoint x="275" y="440" as="targetPoint"/>
                    </mxGeometry>
                </mxCell>
                <mxCell id="VFTJdjdQ5J9usoPkyaWU-71" value="" style="endArrow=none;html=1;strokeColor=#131111;" parent="1" edge="1">
                    <mxGeometry width="50" height="50" relative="1" as="geometry">
                        <mxPoint x="350" y="490" as="sourcePoint"/>
                        <mxPoint x="290" y="440" as="targetPoint"/>
                    </mxGeometry>
                </mxCell>
                <mxCell id="VFTJdjdQ5J9usoPkyaWU-72" value="&lt;font size=&quot;1&quot; color=&quot;#ff0000&quot;&gt;&lt;b style=&quot;font-size: 17px;&quot;&gt;（&lt;/b&gt;&lt;/font&gt;" style="text;html=1;align=center;verticalAlign=middle;resizable=0;points=[];autosize=1;strokeColor=none;fillColor=none;" parent="1" vertex="1">
                    <mxGeometry x="210" y="440" width="40" height="30" as="geometry"/>
                </mxCell>
                <mxCell id="VFTJdjdQ5J9usoPkyaWU-73" value="&lt;font color=&quot;#ff0000&quot;&gt;&lt;span style=&quot;font-size: 17px;&quot;&gt;&lt;b&gt;）&lt;/b&gt;&lt;/span&gt;&lt;/font&gt;" style="text;html=1;align=center;verticalAlign=middle;resizable=0;points=[];autosize=1;strokeColor=none;fillColor=none;" parent="1" vertex="1">
                    <mxGeometry x="320" y="440" width="40" height="30" as="geometry"/>
                </mxCell>
                <mxCell id="VFTJdjdQ5J9usoPkyaWU-74" value="&lt;font color=&quot;#0066cc&quot; size=&quot;1&quot;&gt;&lt;b style=&quot;font-size: 45px;&quot;&gt;X&lt;/b&gt;&lt;/font&gt;" style="text;html=1;align=center;verticalAlign=middle;resizable=0;points=[];autosize=1;strokeColor=none;fillColor=none;" parent="1" vertex="1">
                    <mxGeometry x="225" y="430" width="50" height="70" as="geometry"/>
                </mxCell>
                <mxCell id="VFTJdjdQ5J9usoPkyaWU-75" value="&lt;font color=&quot;#0066cc&quot; size=&quot;1&quot;&gt;&lt;b style=&quot;font-size: 45px;&quot;&gt;X&lt;/b&gt;&lt;/font&gt;" style="text;html=1;align=center;verticalAlign=middle;resizable=0;points=[];autosize=1;strokeColor=none;fillColor=none;" parent="1" vertex="1">
                    <mxGeometry x="290" y="430" width="50" height="70" as="geometry"/>
                </mxCell>
                <mxCell id="VFTJdjdQ5J9usoPkyaWU-76" value="&lt;font color=&quot;#0066cc&quot; size=&quot;1&quot;&gt;&lt;b style=&quot;font-size: 45px;&quot;&gt;X&lt;/b&gt;&lt;/font&gt;" style="text;html=1;align=center;verticalAlign=middle;resizable=0;points=[];autosize=1;strokeColor=none;fillColor=none;" parent="1" vertex="1">
                    <mxGeometry x="435" y="270" width="50" height="70" as="geometry"/>
                </mxCell>
                <mxCell id="VFTJdjdQ5J9usoPkyaWU-77" value="&lt;font color=&quot;#0066cc&quot; size=&quot;1&quot;&gt;&lt;b style=&quot;font-size: 45px;&quot;&gt;X&lt;/b&gt;&lt;/font&gt;" style="text;html=1;align=center;verticalAlign=middle;resizable=0;points=[];autosize=1;strokeColor=none;fillColor=none;" parent="1" vertex="1">
                    <mxGeometry x="310" y="350" width="50" height="70" as="geometry"/>
                </mxCell>
                <mxCell id="VFTJdjdQ5J9usoPkyaWU-79" value="" style="ellipse;whiteSpace=wrap;html=1;aspect=fixed;" parent="1" vertex="1">
                    <mxGeometry x="410" y="410" width="40" height="40" as="geometry"/>
                </mxCell>
                <mxCell id="VFTJdjdQ5J9usoPkyaWU-80" value="" style="endArrow=none;html=1;strokeColor=#131111;" parent="1" edge="1">
                    <mxGeometry width="50" height="50" relative="1" as="geometry">
                        <mxPoint x="375" y="490" as="sourcePoint"/>
                        <mxPoint x="425" y="440" as="targetPoint"/>
                    </mxGeometry>
                </mxCell>
                <mxCell id="VFTJdjdQ5J9usoPkyaWU-81" value="" style="endArrow=none;html=1;strokeColor=#131111;" parent="1" edge="1">
                    <mxGeometry width="50" height="50" relative="1" as="geometry">
                        <mxPoint x="500" y="490" as="sourcePoint"/>
                        <mxPoint x="440" y="440" as="targetPoint"/>
                    </mxGeometry>
                </mxCell>
                <mxCell id="VFTJdjdQ5J9usoPkyaWU-82" value="&lt;font size=&quot;1&quot; color=&quot;#ff0000&quot;&gt;&lt;b style=&quot;font-size: 17px;&quot;&gt;（&lt;/b&gt;&lt;/font&gt;" style="text;html=1;align=center;verticalAlign=middle;resizable=0;points=[];autosize=1;strokeColor=none;fillColor=none;" parent="1" vertex="1">
                    <mxGeometry x="360" y="440" width="40" height="30" as="geometry"/>
                </mxCell>
                <mxCell id="VFTJdjdQ5J9usoPkyaWU-83" value="&lt;font color=&quot;#ff0000&quot;&gt;&lt;span style=&quot;font-size: 17px;&quot;&gt;&lt;b&gt;）&lt;/b&gt;&lt;/span&gt;&lt;/font&gt;" style="text;html=1;align=center;verticalAlign=middle;resizable=0;points=[];autosize=1;strokeColor=none;fillColor=none;" parent="1" vertex="1">
                    <mxGeometry x="470" y="440" width="40" height="30" as="geometry"/>
                </mxCell>
                <mxCell id="VFTJdjdQ5J9usoPkyaWU-84" value="&lt;font color=&quot;#0066cc&quot; size=&quot;1&quot;&gt;&lt;b style=&quot;font-size: 45px;&quot;&gt;X&lt;/b&gt;&lt;/font&gt;" style="text;html=1;align=center;verticalAlign=middle;resizable=0;points=[];autosize=1;strokeColor=none;fillColor=none;" parent="1" vertex="1">
                    <mxGeometry x="375" y="430" width="50" height="70" as="geometry"/>
                </mxCell>
                <mxCell id="VFTJdjdQ5J9usoPkyaWU-85" value="&lt;font color=&quot;#0066cc&quot; size=&quot;1&quot;&gt;&lt;b style=&quot;font-size: 45px;&quot;&gt;X&lt;/b&gt;&lt;/font&gt;" style="text;html=1;align=center;verticalAlign=middle;resizable=0;points=[];autosize=1;strokeColor=none;fillColor=none;" parent="1" vertex="1">
                    <mxGeometry x="440" y="430" width="50" height="70" as="geometry"/>
                </mxCell>
                <mxCell id="VFTJdjdQ5J9usoPkyaWU-86" value="" style="endArrow=classic;html=1;strokeColor=#006EAF;fontSize=45;fontColor=#0066CC;fillColor=#1ba1e2;exitX=0.815;exitY=-0.015;exitDx=0;exitDy=0;exitPerimeter=0;entryX=1;entryY=0.5;entryDx=0;entryDy=0;" parent="1" source="VFTJdjdQ5J9usoPkyaWU-69" target="VFTJdjdQ5J9usoPkyaWU-58" edge="1">
                    <mxGeometry width="50" height="50" relative="1" as="geometry">
                        <mxPoint x="295" y="300" as="sourcePoint"/>
                        <mxPoint x="293" y="350" as="targetPoint"/>
                        <Array as="points">
                            <mxPoint x="290" y="370"/>
                        </Array>
                    </mxGeometry>
                </mxCell>
                <mxCell id="VFTJdjdQ5J9usoPkyaWU-87" value="" style="endArrow=classic;html=1;strokeColor=#006EAF;fontSize=45;fontColor=#0066CC;fillColor=#1ba1e2;exitX=0.815;exitY=-0.015;exitDx=0;exitDy=0;exitPerimeter=0;entryX=1;entryY=0.5;entryDx=0;entryDy=0;" parent="1" edge="1">
                    <mxGeometry width="50" height="50" relative="1" as="geometry">
                        <mxPoint x="259.9999999999999" y="329.4000000000001" as="sourcePoint"/>
                        <mxPoint x="217.4" y="260" as="targetPoint"/>
                        <Array as="points">
                            <mxPoint x="257.4" y="290"/>
                        </Array>
                    </mxGeometry>
                </mxCell>
                <mxCell id="VFTJdjdQ5J9usoPkyaWU-88" value="" style="endArrow=classic;html=1;strokeColor=#006EAF;fontSize=45;fontColor=#0066CC;fillColor=#1ba1e2;entryX=1;entryY=0.5;entryDx=0;entryDy=0;" parent="1" edge="1">
                    <mxGeometry width="50" height="50" relative="1" as="geometry">
                        <mxPoint x="220" y="250" as="sourcePoint"/>
                        <mxPoint x="250" y="200" as="targetPoint"/>
                        <Array as="points">
                            <mxPoint x="290" y="230"/>
                        </Array>
                    </mxGeometry>
                </mxCell>
                <mxCell id="VFTJdjdQ5J9usoPkyaWU-89" value="" style="endArrow=classic;html=1;strokeColor=#006EAF;fontSize=45;fontColor=#0066CC;fillColor=#1ba1e2;entryX=0.225;entryY=-0.045;entryDx=0;entryDy=0;exitX=0;exitY=0.5;exitDx=0;exitDy=0;entryPerimeter=0;" parent="1" source="VFTJdjdQ5J9usoPkyaWU-4" target="VFTJdjdQ5J9usoPkyaWU-11" edge="1">
                    <mxGeometry width="50" height="50" relative="1" as="geometry">
                        <mxPoint x="230" y="260" as="sourcePoint"/>
                        <mxPoint x="260" y="210" as="targetPoint"/>
                        <Array as="points">
                            <mxPoint x="160" y="190"/>
                        </Array>
                    </mxGeometry>
                </mxCell>
                <mxCell id="VFTJdjdQ5J9usoPkyaWU-90" value="" style="endArrow=classic;html=1;strokeColor=#006EAF;fontSize=45;fontColor=#0066CC;fillColor=#1ba1e2;exitX=0.5;exitY=1;exitDx=0;exitDy=0;" parent="1" source="VFTJdjdQ5J9usoPkyaWU-11" edge="1">
                    <mxGeometry width="50" height="50" relative="1" as="geometry">
                        <mxPoint x="200" y="300" as="sourcePoint"/>
                        <mxPoint x="205" y="330" as="targetPoint"/>
                        <Array as="points">
                            <mxPoint x="190" y="300"/>
                        </Array>
                    </mxGeometry>
                </mxCell>
                <mxCell id="VFTJdjdQ5J9usoPkyaWU-93" value="" style="endArrow=classic;html=1;strokeColor=#006EAF;fontSize=45;fontColor=#0066CC;exitX=1.052;exitY=0.329;exitDx=0;exitDy=0;exitPerimeter=0;entryX=0.648;entryY=0.026;entryDx=0;entryDy=0;entryPerimeter=0;fillColor=#1ba1e2;" parent="1" source="VFTJdjdQ5J9usoPkyaWU-66" target="VFTJdjdQ5J9usoPkyaWU-74" edge="1">
                    <mxGeometry width="50" height="50" relative="1" as="geometry">
                        <mxPoint x="320" y="250" as="sourcePoint"/>
                        <mxPoint x="370" y="200" as="targetPoint"/>
                        <Array as="points">
                            <mxPoint x="233" y="410"/>
                        </Array>
                    </mxGeometry>
                </mxCell>
                <mxCell id="VFTJdjdQ5J9usoPkyaWU-94" value="" style="endArrow=classic;html=1;strokeColor=#006EAF;fontSize=45;fontColor=#0066CC;exitX=0;exitY=0.5;exitDx=0;exitDy=0;entryX=0.25;entryY=0;entryDx=0;entryDy=0;entryPerimeter=0;fillColor=#1ba1e2;" parent="1" source="VFTJdjdQ5J9usoPkyaWU-1" target="VFTJdjdQ5J9usoPkyaWU-4" edge="1">
                    <mxGeometry width="50" height="50" relative="1" as="geometry">
                        <mxPoint x="320" y="250" as="sourcePoint"/>
                        <mxPoint x="370" y="200" as="targetPoint"/>
                        <Array as="points">
                            <mxPoint x="250" y="100"/>
                        </Array>
                    </mxGeometry>
                </mxCell>
            </root>
        </mxGraphModel>
    </diagram>
</mxfile>